<?xml version="1.0" encoding="UTF-8" standalone="no"?>
<!-- Created with Inkscape (http://www.inkscape.org/) -->

<svg
   xmlns:dc="http://purl.org/dc/elements/1.1/"
   xmlns:cc="http://creativecommons.org/ns#"
   xmlns:rdf="http://www.w3.org/1999/02/22-rdf-syntax-ns#"
   xmlns:svg="http://www.w3.org/2000/svg"
   xmlns="http://www.w3.org/2000/svg"
   xmlns:sodipodi="http://sodipodi.sourceforge.net/DTD/sodipodi-0.dtd"
   xmlns:inkscape="http://www.inkscape.org/namespaces/inkscape"
   width="300mm"
   height="300mm"
   viewBox="0 0 1062.9921 1062.9921"
   id="svg11202"
   version="1.1"
   inkscape:version="0.91 r13725"
   sodipodi:docname="firefox-heart-drawing.svg">
  <defs
     id="defs11204" />
  <sodipodi:namedview
     id="base"
     pagecolor="#ffffff"
     bordercolor="#666666"
     borderopacity="1.0"
     inkscape:pageopacity="0.0"
     inkscape:pageshadow="2"
     inkscape:zoom="0.35"
     inkscape:cx="-192.55208"
     inkscape:cy="606.64368"
     inkscape:document-units="px"
     inkscape:current-layer="layer1"
     showgrid="false"
     inkscape:window-width="1784"
     inkscape:window-height="939"
     inkscape:window-x="10"
     inkscape:window-y="23"
     inkscape:window-maximized="0" />
  <metadata
     id="metadata11207">
    <rdf:RDF>
      <cc:Work
         rdf:about="">
        <dc:format>image/svg+xml</dc:format>
        <dc:type
           rdf:resource="http://purl.org/dc/dcmitype/StillImage" />
        <dc:title />
      </cc:Work>
    </rdf:RDF>
  </metadata>
  <g
     inkscape:label="Layer 1"
     inkscape:groupmode="layer"
     id="layer1"
     transform="translate(0,10.629921)">
    <g
       transform="matrix(5.3454979,0,0,5.3454979,-11465.609,-12253.491)"
       id="g11067-9-8-2-4"
       style="stroke:none;stroke-opacity:1">
      <circle
         id="circle9213-2-3-3-8-0-1-0-4-7"
         r="80.452789"
         cy="2389.2734"
         cx="2243.5757"
         style="fill:#00acf5;fill-opacity:1;stroke:none;stroke-opacity:1" />
      <g
         transform="translate(-380.00452,88.997189)"
         style="stroke:none;stroke-opacity:1"
         id="g10874-4-6-6-7-5">
        <circle
           id="circle9213-2-3-3-8-0-3-3-2-2-9"
           r="4.2620339"
           cy="2270.9233"
           cx="2615.9011"
           style="opacity:1;fill:#000000;fill-opacity:1;stroke:none;stroke-opacity:1" />
        <path
           sodipodi:nodetypes="ccccc"
           style="fill:#ffffff;fill-rule:evenodd;stroke:none;stroke-width:0.55425256px;stroke-linecap:butt;stroke-linejoin:miter;stroke-opacity:1"
           d="m 2615.9818,2269.614 1.076,5.4606 -19.231,11.7718 -2.4943,-13.3037 z"
           id="path10621-7-3-6-5-3-69-7"
           inkscape:connector-curvature="0" />
        <path
           style="fill:#ff6600;fill-rule:evenodd;stroke:none;stroke-width:0.55425256px;stroke-linecap:butt;stroke-linejoin:miter;stroke-opacity:1"
           d="m 2616.5231,2272.1172 -1.0567,-5.4657 -22.1621,-4.0945 2.4233,13.317 z"
           id="path10621-4-3-9-8-6-5-1-5"
           inkscape:connector-curvature="0" />
      </g>
      <text
         sodipodi:linespacing="125%"
         id="text8403-7-3-7-2-1-1-4-3-7-4-3"
         y="2377.2603"
         x="2262.0513"
         style="font-style:normal;font-weight:normal;font-size:57.93136597px;line-height:125%;font-family:sans-serif;letter-spacing:0px;word-spacing:0px;fill:#ff0000;fill-opacity:1;stroke:none;stroke-width:1px;stroke-linecap:butt;stroke-linejoin:miter;stroke-opacity:1"
         xml:space="preserve"
         transform="scale(0.98566877,1.0145396)"><tspan
           y="2377.2603"
           x="2262.0513"
           id="tspan8405-3-4-4-4-9-0-3-8-3-2-6"
           sodipodi:role="line">♥</tspan></text>
      <g
         id="g10978">
        <path
           sodipodi:nodetypes="csccsscccccsscscscscccccccc"
           inkscape:connector-curvature="0"
           id="path15272-7-6-6-0-2-2-58-5"
           d="m 2325.2388,2398.1493 c -2.2889,39.4473 -40.7212,76.6486 -85.8359,72.7975 -44.6285,-3.8096 -79.5063,-40.8891 -76.3681,-85.8186 1.3238,-16.6071 3.3016,-22.4335 8.6285,-33.3982 2.3068,-4.6564 0.6906,-8.8812 10.984,-23.3036 3.1749,-4.4485 -1.2268,13.6376 7.4989,12.6704 7.1609,-0.7937 9.8827,-2.1849 15.8777,1.9914 10.1592,-15.3472 17.4221,-14.6755 17.4221,-14.6755 0,0 -7.2886,15.0476 -4.656,19.972 4.3068,5.1161 7.121,13.8355 0.8534,19.5855 l 4.081,9.8384 c -6.884,2.6807 -9.8905,6.5331 -10.0307,9.607 -0.5353,11.741 14.5391,25.3391 30.5763,12.6563 5.5533,-4.3919 22.224,6.8587 22.5299,6.4502 -0.023,0.023 -9.185,-2.5957 -16.5467,4.6681 -17.6807,17.4464 -28.144,11.0911 -28.144,11.0911 23.1293,10.2687 42.1357,10.6846 56.1126,-1.7672 15.0944,-13.4473 12.4758,-19.636 12.4758,-19.636 0,0 1.2876,6.0068 2.6555,3.5477 4.0741,-7.3244 1.3678,-28.0586 1.1265,-31.9289 3.4656,4.2558 5.5131,10.0544 7.6439,10.1592 -0.523,-13.0652 -2.512,-30.6975 -12.8451,-40.3625 -13.9076,-15.2725 13.6374,9.9166 9.4191,2.369 -6.1979,-12.0633 -11.8556,-16.555 -22.6449,-24.7436 55.0759,17.1039 49.1965,74.8413 49.2194,75.9707 0.03,1.3879 -0.016,1.0796 -0.033,2.2596 z"
           style="opacity:1;fill:#ff6600;fill-opacity:1;stroke:none;stroke-width:0.55425245;stroke-linecap:round;stroke-linejoin:round;stroke-miterlimit:4;stroke-dasharray:none;stroke-dashoffset:0;stroke-opacity:1" />
        <g
           id="g10973">
          <circle
             id="circle9213-2-3-3-8-0-1-0-4-7-4"
             r="17.952791"
             cy="2368.4028"
             cx="2185.1768"
             style="fill:#ff6600;fill-opacity:1;stroke:none;stroke-opacity:1" />
          <circle
             id="circle9213-2-3-3-8-0-1-0-4-7-4-2"
             r="14.952791"
             cy="2357.6528"
             cx="2195.0518"
             style="fill:#ff6600;fill-opacity:1;stroke:none;stroke-opacity:1" />
          <circle
             id="circle9213-2-3-3-8-0-1-0-4-7-4-0"
             r="14.327791"
             cy="2359.4028"
             cx="2204.8018"
             style="fill:#ff6600;fill-opacity:1;stroke:none;stroke-opacity:1" />
        </g>
      </g>
    </g>
  </g>
</svg>
